# xmcd
#
# Track frame offsets: 
#        150
#        20800
#        43025
#        65365
#        86552
#        106710
#        128935
#        147032
#        166467
#        186862
#        209667
#        230567
#        254289
#        270212
#        291839
#        313559
#        327074
#
# Disc length: 4621 seconds
#
# Revision: 0
# Processed by: cddbd v1.5.2PL0 Copyright (c) Steve Scherf et al.
# Submitted via: ExactAudioCopyFreeDBPlugin 1.0
#
DISCID=f3120b11
DTITLE=Koko Taylor - The Essentiale
DYEAR=2014
DGENRE=Blues
TTITLE0=I'm A Woman
TTITLE1=Born Under A Bad Sign (with Buddy Guy)
TTITLE2=What Kind Of Man Is This
TTITLE3=Mother Nature (with Carey Bell)
TTITLE4=I Got What It Takes
TTITLE5=I'd Rather Go Blind
TTITLE6=Man Size Job
TTITLE7=Insane Asylum
TTITLE8=Old Woman
TTITLE9=Ernestine
TTITLE10=Keep Your Booty Out of My Bed
TTITLE11=Stop Watching Your Enemies
TTITLE12=Blue Prelude
TTITLE13=Come To Mama
TTITLE14=Time Will Tell
TTITLE15=Wang Dang Doodle
TTITLE16=Tease Your Man (bonus track)
EXTD=
EXTT0=
EXTT1=
EXTT2=
EXTT3=
EXTT4=
EXTT5=
EXTT6=
EXTT7=
EXTT8=
EXTT9=
EXTT10=
EXTT11=
EXTT12=
EXTT13=
EXTT14=
EXTT15=
EXTT16=
PLAYORDER=
